{"title":"Rich Girl ft Fabolous and Rick Ross - Swagger Right [KingPinVide","uid":5878722,"size":98838189,"categoryP":"video","categoryS":"music_videos","magnet":"?xt=urn:btih:b3163967774d2cd559f2976b95bfadb094fed48f&amp;dn=Rich+Girl+ft+Fabolous+and+Rick+Ross+-+Swagger+Right+%5BKingPinVide&amp;tr=udp%3A%2F%2Ftracker.openbittorrent.com%3A80&amp;tr=udp%3A%2F%2Fopen.demonii.com%3A1337&amp;tr=udp%3A%2F%2Ftracker.coppersurfer.tk%3A6969&amp;tr=udp%3A%2F%2Fexodus.desync.com%3A6969","seeders":1,"leechers":0,"uploader":"KingPinMan","files":5,"time":1286755872,"description":"[img]http://img810.imageshack.us/img810/9117/richgirlswag.png[/img]\n\n[img]http://img545.imageshack.us/img545/9391/richgirlswag2.png[/img]\n\n[code]General\nComplete name                    : Rich Girl ft Fabolous and Rick Ross - Swagger Right [KingPinVideos].mpg\nFormat                           : MPEG-PS\nFile size                        : 94.3 MiB\nDuration                         : 4mn 36s\nOverall bit rate                 : 2 856 Kbps\nWriting library                  : encoded by TMPGEnc 4.0 XPress Version. 4.7.4.299\n\nVideo\nID                               : 224 (0xE0)\nFormat                           : MPEG Video\nFormat version                   : Version 1\nFormat settings, BVOP            : Yes\nFormat settings, Matrix          : Default\nDuration                         : 4mn 36s\nBit rate mode                    : Constant\nBit rate                         : 2 614 Kbps\nNominal bit rate                 : 2 700 Kbps\nWidth                            : 384 pixels\nHeight                           : 208 pixels\nDisplay aspect ratio             : 16:9\nFrame rate                       : 29.970 fps\nResolution                       : 8 bits\nScan type                        : Progressive\nBits/(Pixel*Frame)               : 1.092\nStream size                      : 86.3 MiB (92%)\nWriting library                  : TMPGEnc XPress 4.7.4.299\n\nAudio\nID                               : 192 (0xC0)\nFormat                           : MPEG Audio\nFormat version                   : Version 1\nFormat profile                   : Layer 2\nDuration                         : 4mn 36s\nBit rate mode                    : Constant\nBit rate                         : 128 Kbps\nChannel(s)                       : 2 channels\nSampling rate                    : 48.0 KHz\nStream size                      : 4.22 MiB (4%)[/code]","torrent":{"xt":"urn:btih:b3163967774d2cd559f2976b95bfadb094fed48f","amp;dn":"Rich+Girl+ft+Fabolous+and+Rick+Ross+-+Swagger+Right+%5BKingPinVide","amp;tr":["udp%3A%2F%2Ftracker.openbittorrent.com%3A80","udp%3A%2F%2Fopen.demonii.com%3A1337","udp%3A%2F%2Ftracker.coppersurfer.tk%3A6969","udp%3A%2F%2Fexodus.desync.com%3A6969"],"infoHash":"b3163967774d2cd559f2976b95bfadb094fed48f","infoHashBuffer":{"type":"Buffer","data":[179,22,57,103,119,77,44,213,89,242,151,107,149,191,173,176,148,254,212,143]},"announce":[],"urlList":[]}}